<svg xmlns="http://www.w3.org/2000/svg" xmlns:xlink="http://www.w3.org/1999/xlink" version="1.1" x="0px" y="0px"
     style="--darkreader-inline-fill: #cc8400;" xml:space="preserve" fill="orange" viewBox="21.88 16.88 468.25 478.25"
     data-darkreader-inline-fill=""><g><path d="M345,184c0-6.6-5.4-12-12-12H179c-6.6,0-12,5.4-12,12v154c0,6.6,5.4,12,12,12h154c6.6,0,12-5.4,12-12V184   z M321,326H191V196h130V326z"/><path
        d="M478.1,223c6.6,0,12-5.4,12-12s-5.4-12-12-12H419v-27h29.1c6.6,0,12-5.4,12-12s-5.4-12-12-12h-29.5   c-1.1-27-22.6-48.5-49.6-49.6V68.9c0-6.6-5.4-12-12-12s-12,5.4-12,12V98h-27V28.9c0-6.6-5.4-12-12-12s-12,5.4-12,12V98h-26V68.9   c0-6.6-5.4-12-12-12s-12,5.4-12,12V98h-26V28.9c0-6.6-5.4-12-12-12s-12,5.4-12,12V98h-27V68.9c0-6.6-5.4-12-12-12s-12,5.4-12,12   v29.5C116,99.5,94.5,121,93.4,148H63.9c-6.6,0-12,5.4-12,12s5.4,12,12,12H93v27H33.9c-6.6,0-12,5.4-12,12s5.4,12,12,12H93v26H63.9   c-6.6,0-12,5.4-12,12s5.4,12,12,12H93v26H33.9c-6.6,0-12,5.4-12,12s5.4,12,12,12H93v27H63.9c-6.6,0-12,5.4-12,12s5.4,12,12,12h29.5   c1.1,27,22.6,48.5,49.6,49.6v29.5c0,6.6,5.4,12,12,12s12-5.4,12-12V424h27v59.1c0,6.6,5.4,12,12,12s12-5.4,12-12V424h26v29.1   c0,6.6,5.4,12,12,12s12-5.4,12-12V424h26v59.1c0,6.6,5.4,12,12,12s12-5.4,12-12V424h27v29.1c0,6.6,5.4,12,12,12s12-5.4,12-12v-29.5   c27-1.1,48.5-22.6,49.6-49.6h29.5c6.6,0,12-5.4,12-12s-5.4-12-12-12H419v-27h59.1c6.6,0,12-5.4,12-12s-5.4-12-12-12H419v-26h29.1   c6.6,0,12-5.4,12-12s-5.4-12-12-12H419v-26H478.1z M366.7,400h-8.9c-0.3,0-0.7-0.1-1-0.1s-0.7,0.1-1,0.1h-48.3   c-0.3,0-0.7-0.1-1-0.1s-0.7,0.1-1,0.1H257c-0.3,0-0.7-0.1-1-0.1s-0.7,0.1-1,0.1h-48.3c-0.3,0-0.7-0.1-1-0.1s-0.7,0.1-1,0.1h-48.3   c-0.3,0-0.7-0.1-1-0.1s-0.7,0.1-1,0.1h-8.9c-15.4,0-28.3-12.9-28.3-28.3v-8.9c0-0.3,0.1-0.7,0.1-1s-0.1-0.7-0.1-1v-48.3   c0-0.3,0.1-0.7,0.1-1s-0.1-0.7-0.1-1V262c0-0.3,0.1-0.7,0.1-1s-0.1-0.7-0.1-1v-48.3c0-0.3,0.1-0.7,0.1-1s-0.1-0.7-0.1-1v-48.3   c0-0.3,0.1-0.7,0.1-1s-0.1-0.7-0.1-1v-8.9c0-15.4,12.9-28.3,28.3-28.3h8.9c0.3,0,0.7,0.1,1,0.1s0.7-0.1,1-0.1h48.3   c0.3,0,0.7,0.1,1,0.1s0.7-0.1,1-0.1H255c0.3,0,0.7,0.1,1,0.1s0.7-0.1,1-0.1h48.3c0.3,0,0.7,0.1,1,0.1s0.7-0.1,1-0.1h48.3   c0.3,0,0.7,0.1,1,0.1s0.7-0.1,1-0.1h8.9c15.4,0,28.3,12.9,28.3,28.3v8.9c0,0.3-0.1,0.7-0.1,1s0.1,0.7,0.1,1v48.3   c0,0.3-0.1,0.7-0.1,1s0.1,0.7,0.1,1V260c0,0.3-0.1,0.7-0.1,1s0.1,0.7,0.1,1v48.3c0,0.3-0.1,0.7-0.1,1s0.1,0.7,0.1,1v48.3   c0,0.3-0.1,0.7-0.1,1s0.1,0.7,0.1,1v8.9C395,387.1,382.1,400,366.7,400z"/></g></svg>