<svg xmlns="http://www.w3.org/2000/svg" x="0px" y="0px" viewBox="2.98 2.98 26.03 27.03">     <g data-name="01">         <path d="M5.2229,9.5l1.781,19.5908A1,1,0,0,0,8,30H24a1,1,0,0,0,.9961-.9092L26.7771,9.5Zm6.84,17.4971C12.041,26.999,12.02,27,11.999,27a.75.75,0,0,1-.7466-.6875l-1-12a.75.75,0,0,1,1.4952-.125l1,12A.75.75,0,0,1,12.0625,26.9971ZM16.75,26.25a.75.75,0,0,1-1.5,0v-12a.75.75,0,0,1,1.5,0Zm3.9976.0625A.75.75,0,0,1,20.001,27c-.021,0-.042-.001-.0635-.0029a.75.75,0,0,1-.6851-.81l1-12a.75.75,0,0,1,1.4952.125Z"></path>         <path d="M28,6H21V4a1,1,0,0,0-1-1H12a1,1,0,0,0-1,1V6H4A1,1,0,0,0,4,8H28a1,1,0,0,0,0-2Z"></path>     </g> </svg>