<svg xmlns="http://www.w3.org/2000/svg" xmlns:xlink="http://www.w3.org/1999/xlink" version="1.1" x="0px" y="0px"
     viewBox="0 0 100 125" style="enable-background:new 0 0 100 100;" xml:space="preserve" fill="orange"><path d="M25.6,44.67c1.18-2.43,0.99-4.99-0.55-7.81c-0.87-0.2-1.77-0.3-2.69-0.3c-0.3,0-0.59,0.01-0.88,0.03  c1.96,2.55,3,5.04,3.09,7.41C24.94,44.18,25.29,44.41,25.6,44.67z" />
    <path d="M52.84,52.75c-0.34,0.23-0.71,0.42-1.09,0.56c1.52,2.23,3.82,3.35,7.03,3.42c0.81-0.87,1.5-1.87,2.03-2.95  c-0.88,0.12-1.72,0.18-2.52,0.18C56.18,53.96,54.36,53.56,52.84,52.75z"/>
    <path d="M31.94,41.34c-0.72-0.96-1.59-1.8-2.56-2.5c-0.14,3.21-0.94,5.78-2.4,7.65c0.17,0.37,0.29,0.77,0.36,1.18  C29.81,46.56,31.32,44.48,31.94,41.34z"/>
    <path d="M49.48,53.6c-0.42-0.04-0.82-0.14-1.2-0.27c-0.27,2.69,0.77,5.03,3.19,7.14c1.21-0.15,2.37-0.48,3.45-0.96  C52.2,57.78,50.38,55.8,49.48,53.6z"/>
    <path d="M48.76,43.65c0.39-0.1,0.8-0.15,1.22-0.15c-0.66-2.62-2.45-4.46-5.44-5.62c-1.07,0.55-2.05,1.25-2.9,2.09  C44.78,40.65,47.17,41.89,48.76,43.65z"/>
    <path d="M26.76,51.08c2.6,0.74,5.09,0.11,7.59-1.9c0.01-0.21,0.02-0.41,0.02-0.62c0-1.02-0.13-2-0.37-2.94  c-2.17,2.38-4.44,3.83-6.76,4.33C27.12,50.34,26.96,50.73,26.76,51.08z"/>
    <path d="M45.89,45.59c0.24-0.33,0.52-0.64,0.84-0.9c-2.19-1.58-4.74-1.85-7.78-0.81c-0.46,1.08-0.77,2.25-0.89,3.47  C40.91,45.86,43.54,45.27,45.89,45.59z"/>
    <path d="M46.36,52.09c-0.29-0.29-0.54-0.62-0.74-0.98c-1.94,1.88-2.64,4.35-2.15,7.52c1,0.65,2.09,1.15,3.26,1.48  C45.76,57.04,45.64,54.35,46.36,52.09z"/>
    <path d="M44.94,48.93c-0.01-0.12-0.01-0.24-0.01-0.37c0-0.29,0.03-0.58,0.07-0.86c-2.69,0.2-4.82,1.64-6.48,4.38  c0.36,1.16,0.88,2.24,1.55,3.22C41.3,52.33,42.94,50.19,44.94,48.93z"/>
    <path d="M21.12,43.65c0.39-0.1,0.8-0.15,1.22-0.15c-0.66-2.62-2.45-4.46-5.44-5.62c-1.07,0.55-2.05,1.25-2.9,2.09  C17.14,40.65,19.53,41.89,21.12,43.65z"/>
    <path d="M25.21,52.75c-0.34,0.23-0.71,0.42-1.09,0.56c1.52,2.23,3.82,3.35,7.03,3.42c0.81-0.87,1.5-1.87,2.03-2.95  c-0.88,0.12-1.72,0.18-2.52,0.18C28.54,53.96,26.72,53.56,25.21,52.75z"/>
    <path d="M18.73,52.09c-0.29-0.29-0.54-0.62-0.75-0.98c-1.94,1.88-2.64,4.35-2.15,7.52c1,0.65,2.09,1.15,3.26,1.48  C18.12,57.04,18,54.35,18.73,52.09z"/>
    <rect x="11.53" y="66.08" width="13.16" height="1.85"/>
    <rect x="28.68" y="66.08" width="4.35" height="1.85"/>
    <path d="M21.85,53.6c-0.42-0.04-0.82-0.14-1.2-0.27c-0.27,2.69,0.77,5.03,3.19,7.14c1.21-0.15,2.37-0.48,3.45-0.96  C24.56,57.78,22.74,55.8,21.85,53.6z"/>
    <path d="M18.25,45.59c0.24-0.33,0.52-0.64,0.84-0.9c-2.19-1.58-4.74-1.85-7.78-0.81c-0.46,1.08-0.77,2.25-0.89,3.47  C13.27,45.86,15.9,45.27,18.25,45.59z"/>
    <path d="M23.29,52.62c0.01,0,0.02-0.01,0.03-0.01c1.83-0.43,3.2-2.08,3.2-4.05c0-0.07,0-0.14-0.01-0.22c0-0.01,0-0.01,0-0.02  c-0.11-2.01-1.66-3.65-3.63-3.9c-0.01,0-0.01,0-0.02,0c-0.16-0.02-0.33-0.03-0.5-0.03c-1.87,0-3.45,1.24-3.98,2.94  c0,0.01,0,0.02-0.01,0.02c-0.11,0.38-0.18,0.78-0.18,1.2c0,0.58,0.12,1.13,0.33,1.63c0,0,0,0.01,0,0.01  c0.64,1.48,2.11,2.52,3.82,2.52C22.68,52.72,22.99,52.68,23.29,52.62z"/>
    <path d="M17.3,48.93c-0.01-0.12-0.01-0.24-0.01-0.37c0-0.29,0.03-0.58,0.07-0.86c-2.69,0.2-4.82,1.64-6.48,4.38  c0.36,1.16,0.88,2.24,1.55,3.22C13.66,52.33,15.3,50.19,17.3,48.93z"/>
    <path d="M78.57,52.62c0.01,0,0.02-0.01,0.03-0.01c1.83-0.43,3.2-2.08,3.2-4.05c0-0.07,0-0.14-0.01-0.22c0-0.01,0-0.01,0-0.02  c-0.11-2.01-1.66-3.65-3.63-3.9c-0.01,0-0.01,0-0.02,0c-0.16-0.02-0.33-0.03-0.5-0.03c-1.87,0-3.45,1.24-3.98,2.94  c0,0.01,0,0.02-0.01,0.02c-0.11,0.38-0.18,0.78-0.18,1.2c0,0.58,0.12,1.13,0.33,1.63c0,0,0,0.01,0,0.01  c0.64,1.48,2.11,2.52,3.82,2.52C77.96,52.72,78.27,52.68,78.57,52.62z"/>
    <path d="M82.04,51.08c2.6,0.74,5.09,0.11,7.59-1.9c0.01-0.21,0.02-0.41,0.02-0.62c0-1.02-0.13-2-0.37-2.94  c-2.17,2.38-4.44,3.83-6.76,4.33C82.4,50.34,82.24,50.73,82.04,51.08z"/>
    <path d="M76.4,43.65c0.39-0.1,0.8-0.15,1.22-0.15c-0.66-2.62-2.45-4.46-5.44-5.62c-1.07,0.55-2.05,1.25-2.9,2.09  C72.42,40.65,74.81,41.89,76.4,43.65z"/>
    <path d="M73.53,45.59c0.24-0.33,0.52-0.64,0.84-0.9c-2.19-1.58-4.74-1.85-7.78-0.81c-0.46,1.08-0.77,2.25-0.89,3.47  C68.55,45.86,71.18,45.27,73.53,45.59z"/>
    <path d="M50.93,52.62c0.01,0,0.02-0.01,0.03-0.01c1.83-0.43,3.2-2.08,3.2-4.05c0-0.07,0-0.14-0.01-0.22c0-0.01,0-0.01,0-0.02  c-0.11-2.01-1.66-3.65-3.63-3.9c-0.01,0-0.01,0-0.02,0c-0.16-0.02-0.33-0.03-0.5-0.03c-1.87,0-3.45,1.24-3.98,2.94  c0,0.01,0,0.02-0.01,0.02c-0.11,0.38-0.18,0.78-0.18,1.2c0,0.58,0.12,1.13,0.33,1.63c0,0,0,0.01,0,0.01  c0.64,1.48,2.11,2.52,3.82,2.52C50.32,52.72,50.63,52.68,50.93,52.62z"/>
    <path d="M87.22,41.34c-0.72-0.96-1.59-1.8-2.56-2.5c-0.14,3.21-0.94,5.78-2.4,7.65c0.17,0.37,0.29,0.77,0.36,1.18  C85.09,46.56,86.6,44.48,87.22,41.34z"/>
    <path d="M88.8,32.07H64.96l-2.37,1.92c-0.08,0.07-0.18,0.1-0.29,0.1H37.69c-0.1,0-0.21-0.04-0.29-0.1l-2.37-1.92H11.2  c-2.04,0-3.7,1.66-3.7,3.7v25.71c0,2.04,1.66,3.7,3.7,3.7h23.84l2.37-1.92c0.08-0.07,0.18-0.1,0.29-0.1h24.62  c0.1,0,0.21,0.04,0.29,0.1l2.37,1.92H88.8c2.04,0,3.7-1.66,3.7-3.7V35.76C92.5,33.73,90.84,32.07,88.8,32.07z M35.25,49.39  c0,0.03,0,0.06-0.01,0.1c-0.21,3-1.45,5.81-3.54,8c-0.02,0.03-0.05,0.05-0.07,0.08c-0.05,0.05-0.09,0.09-0.14,0.14  c-2.1,2.1-4.8,3.39-7.71,3.7c-0.03,0.01-0.05,0.01-0.08,0.01c-0.44,0.05-0.89,0.07-1.34,0.07c-3.45,0-6.69-1.34-9.13-3.78  c-2.44-2.44-3.78-5.68-3.78-9.13c0-0.13,0-0.26,0.01-0.39c0-0.03,0-0.05,0-0.08c0.11-3.03,1.26-5.87,3.27-8.13  c0.01-0.02,0.03-0.03,0.04-0.05c0.15-0.16,0.3-0.32,0.46-0.48c2.44-2.44,5.68-3.78,9.13-3.78c3.45,0,6.69,1.34,9.13,3.78  c0.47,0.47,0.91,0.98,1.3,1.51c0.01,0.01,0.01,0.02,0.02,0.03c1.6,2.19,2.47,4.83,2.47,7.59C35.27,48.84,35.26,49.11,35.25,49.39z   M62.89,49.39c0,0.03,0,0.06-0.01,0.1c-0.21,3-1.45,5.81-3.54,8c-0.02,0.03-0.05,0.05-0.07,0.08c-0.04,0.05-0.09,0.09-0.13,0.14  c-2.1,2.1-4.8,3.39-7.71,3.7c-0.03,0.01-0.05,0.01-0.08,0.01c-0.44,0.05-0.89,0.07-1.34,0.07c-3.45,0-6.69-1.34-9.13-3.78  c-2.44-2.44-3.78-5.68-3.78-9.13c0-0.13,0-0.26,0.01-0.39c0-0.03,0-0.05,0-0.08c0.11-3.03,1.25-5.87,3.27-8.13  c0.01-0.02,0.03-0.03,0.04-0.05c0.15-0.16,0.3-0.32,0.46-0.48c2.44-2.44,5.68-3.78,9.13-3.78s6.69,1.34,9.13,3.78  c0.47,0.47,0.91,0.98,1.3,1.51c0.01,0.01,0.01,0.02,0.02,0.03c1.6,2.19,2.47,4.83,2.47,7.59C62.91,48.84,62.9,49.11,62.89,49.39z   M90.53,49.39c0,0.03,0,0.06-0.01,0.1c-0.21,3-1.45,5.81-3.54,8c-0.02,0.03-0.05,0.05-0.07,0.08c-0.04,0.05-0.09,0.09-0.13,0.14  c-2.1,2.1-4.8,3.39-7.71,3.7C79.03,61.4,79,61.4,78.98,61.4c-0.44,0.05-0.89,0.07-1.34,0.07c-3.45,0-6.69-1.34-9.13-3.78  c-2.44-2.44-3.78-5.68-3.78-9.13c0-0.13,0-0.26,0.01-0.39c0-0.03,0-0.05,0-0.08c0.11-3.03,1.26-5.87,3.27-8.13  c0.01-0.02,0.03-0.03,0.04-0.05c0.15-0.16,0.3-0.32,0.46-0.48c2.44-2.44,5.68-3.78,9.13-3.78c3.45,0,6.69,1.34,9.13,3.78  c0.47,0.47,0.91,0.98,1.29,1.51c0.01,0.01,0.01,0.02,0.02,0.03c1.6,2.19,2.47,4.83,2.47,7.59C90.55,48.84,90.54,49.11,90.53,49.39z"/>
    <path d="M80.88,44.67c1.18-2.43,0.99-4.99-0.55-7.81c-0.87-0.2-1.77-0.3-2.69-0.3c-0.3,0-0.59,0.01-0.88,0.03  c1.96,2.55,3,5.04,3.09,7.41C80.22,44.18,80.57,44.41,80.88,44.67z"/>
    <path d="M53.24,44.67c1.18-2.43,0.99-4.99-0.55-7.81c-0.87-0.2-1.77-0.3-2.69-0.3c-0.3,0-0.59,0.01-0.88,0.03  c1.96,2.55,3,5.04,3.09,7.41C52.58,44.18,52.93,44.41,53.24,44.67z"/>
    <path d="M54.4,51.08c2.6,0.74,5.09,0.11,7.59-1.9C62,48.97,62,48.77,62,48.56c0-1.02-0.13-2-0.37-2.94  c-2.17,2.38-4.44,3.83-6.76,4.33C54.76,50.34,54.6,50.73,54.4,51.08z"/>
    <path d="M72.58,48.93c-0.01-0.12-0.01-0.24-0.01-0.37c0-0.29,0.03-0.58,0.07-0.86c-2.69,0.2-4.82,1.64-6.48,4.38  c0.36,1.16,0.88,2.24,1.55,3.22C68.94,52.33,70.58,50.19,72.58,48.93z"/>
    <path d="M59.58,41.34c-0.72-0.96-1.59-1.8-2.56-2.5c-0.14,3.21-0.94,5.78-2.4,7.65c0.17,0.37,0.29,0.77,0.36,1.18  C57.45,46.56,58.96,44.48,59.58,41.34z"/>
    <path d="M77.12,53.6c-0.42-0.04-0.82-0.14-1.2-0.27c-0.27,2.69,0.77,5.03,3.19,7.14c1.21-0.15,2.37-0.48,3.45-0.96  C79.84,57.78,78.02,55.8,77.12,53.6z"/>
    <path d="M74,52.09c-0.29-0.29-0.54-0.62-0.74-0.98c-1.94,1.88-2.64,4.35-2.15,7.52c1,0.65,2.09,1.15,3.26,1.48  C73.4,57.04,73.28,54.35,74,52.09z"/>
    <path d="M80.48,52.75c-0.34,0.23-0.71,0.42-1.09,0.56c1.52,2.23,3.82,3.35,7.03,3.42c0.81-0.87,1.5-1.87,2.03-2.95  c-0.88,0.12-1.72,0.18-2.52,0.18C83.82,53.96,82,53.56,80.48,52.75z"/></svg>