<svg xmlns="http://www.w3.org/2000/svg" xmlns:xlink="http://www.w3.org/1999/xlink" version="1.1" x="0px" y="0px" enable-background="new 0 0 100 100" xml:space="preserve" fill="orange" viewBox="7.5 14.35 85.02 71.32" style="--darkreader-inline-fill: #cc8400;" data-darkreader-inline-fill=""><path d="M43.677,23.201c-0.658-0.467-1.578-0.282-2.054,0.411c-3.335,4.854-6.76,9.708-10.173,14.513  c-0.487,0.687-0.333,1.623,0.345,2.086c0.259,0.177,0.56,0.264,0.853,0.261c0.484-0.005,0.951-0.24,1.25-0.664  c3.393-4.807,6.797-9.657,10.111-14.5C44.489,24.607,44.334,23.668,43.677,23.201z M68.151,37.74  c-0.693-0.48-1.634-0.323-2.095,0.354c-3.233,4.735-6.573,9.535-9.918,14.35c-0.477,0.688-0.307,1.638,0.378,2.111  c0.262,0.181,0.565,0.271,0.858,0.27c0.485-0.001,0.95-0.235,1.246-0.66c3.353-4.815,6.702-9.608,9.943-14.33  C69.035,39.151,68.844,38.219,68.151,37.74z M60.513,23.266c-0.679-0.487-1.592-0.332-2.037,0.348  c-6.246,9.512-13.095,19.252-19.721,28.83c-0.473,0.684-0.295,1.631,0.395,2.107c0.264,0.182,0.567,0.275,0.86,0.276  c0.485,0.002,0.948-0.228,1.239-0.651c6.618-9.591,13.458-19.319,19.694-28.796C61.387,24.693,61.191,23.753,60.513,23.266z   M70.371,84.516c-0.231,0.648-0.83,1.099-1.432,1.133c-0.141,0.008-0.271-0.015-0.409-0.047c-12.008-3.346-25.052-3.346-37.06-0.001  c-0.725,0.2-1.551-0.296-1.842-1.095c-0.291-0.8,0.071-1.611,0.807-1.812c4.567-1.256,9.274-2.066,14.016-2.427l2.873,0.005  c-0.041-4.628-0.072-9.256-0.095-13.883c1.847,0.006,3.694,0.006,5.54,0c-0.023,4.631-0.054,9.262-0.095,13.893l2.883,0.005  c4.733,0.352,9.438,1.171,14.006,2.418C70.3,82.905,70.662,83.716,70.371,84.516z M92.117,61.525  c-0.032,0.522-0.51,0.969-1.061,0.992c-27.371,1.12-54.741,1.12-82.112,0c-0.551-0.023-1.029-0.47-1.061-0.992  C6.994,46.816,7.653,32.106,9.86,17.397c0.079-0.522,0.574-0.995,1.097-1.049c26.029-2.664,52.057-2.664,78.086,0  c0.523,0.054,1.018,0.527,1.097,1.049C92.347,32.106,93.006,46.816,92.117,61.525z"/>
</svg>