<svg xmlns="http://www.w3.org/2000/svg" xmlns:xlink="http://www.w3.org/1999/xlink" version="1.1" x="0px" y="0px" style="--darkreader-inline-fill: #cc8400;" xml:space="preserve" fill="orange" viewBox="14 6.97 72 86.08" data-darkreader-inline-fill=""><style type="text/css">
	.st0{display:none;}
</style><style class="darkreader darkreader--sync" media="screen"/>
    <g><g><path d="M85.14,15.44H63.06l-2.95-2.95c-0.16-0.16-0.37-0.25-0.59-0.25H34.3c-0.46,0-0.84,0.38-0.84,0.84v2.36h-7.14l-7.63-8.19    c-0.16-0.17-0.38-0.27-0.61-0.27h-3.22c-0.46,0-0.84,0.38-0.84,0.84v46.41c0,0.45,0.36,0.83,0.82,0.84l2.71,0.07v37.04    c0,0.46,0.38,0.84,0.84,0.84h66.76c0.46,0,0.84-0.38,0.84-0.84V16.28C85.98,15.81,85.61,15.44,85.14,15.44z M59.17,13.92    l2.95,2.95c0,0,0,0,0.01,0.01l1.13,1.14l-5.18,3.72H41.17c-0.46,0-0.84,0.38-0.84,0.84s0.38,0.84,0.84,0.84h14.58l-1.53,1.1H35.14    v-5.22H52.5c0.46,0,0.84-0.38,0.84-0.84c0-0.46-0.38-0.84-0.84-0.84H35.14v-1.32c0,0,0-0.01,0-0.01c0,0,0-0.01,0-0.01v-2.35H59.17    z M15.7,8.66h2.01l7.64,8.2c0.01,0.01,0.01,0.01,0.02,0.02l5.15,5.53v17.24l-12.5,13.83l-2.32-0.06V8.66z M84.3,91.34H19.22v-10    h5.7c0.46,0,0.84-0.38,0.84-0.84s-0.38-0.84-0.84-0.84h-5.7V77.5h5.7c0.46,0,0.84-0.38,0.84-0.84s-0.38-0.84-0.84-0.84h-5.7v-2.17    h5.7c0.46,0,0.84-0.38,0.84-0.84s-0.38-0.84-0.84-0.84h-5.7v-2.17h5.7c0.46,0,0.84-0.38,0.84-0.84c0-0.46-0.38-0.84-0.84-0.84    h-5.7v-2.17h5.7c0.46,0,0.84-0.38,0.84-0.84c0-0.46-0.38-0.84-0.84-0.84h-5.7v-9.65l12.76-14.11c0.14-0.15,0.22-0.35,0.22-0.56    V22.08c0-0.21-0.08-0.42-0.22-0.57l-4.09-4.39h5.58v0.88c-0.09,0.13-0.15,0.28-0.15,0.45c0,0.17,0.06,0.32,0.15,0.45v6.45    c0,0.46,0.38,0.84,0.84,0.84h20.19c0.18,0,0.35-0.05,0.49-0.16l10.06-7.23c0.2-0.14,0.33-0.37,0.35-0.61    c0.02-0.24-0.07-0.49-0.24-0.66l-0.4-0.4H84.3V91.34z"/><path d="M75.25,55.07h3.35c0.46,0,0.84-0.38,0.84-0.84V27.39c0-0.46-0.38-0.84-0.84-0.84h-3.35c-0.46,0-0.84,0.38-0.84,0.84v26.84    C74.41,54.69,74.78,55.07,75.25,55.07z M76.08,28.23h1.68v25.16h-1.68V28.23z"/><path d="M69.44,55.07h3.35c0.46,0,0.84-0.38,0.84-0.84V27.39c0-0.46-0.38-0.84-0.84-0.84h-3.35c-0.46,0-0.84,0.38-0.84,0.84v26.84    C68.61,54.69,68.98,55.07,69.44,55.07z M70.28,28.23h1.68v25.16h-1.68V28.23z"/><path d="M62.8,27.39v26.84c0,0.46,0.38,0.84,0.84,0.84H67c0.46,0,0.84-0.38,0.84-0.84V27.39c0-0.46-0.38-0.84-0.84-0.84h-3.35    C63.18,26.55,62.8,26.93,62.8,27.39z M64.48,28.23h1.68v25.16h-1.68V28.23z"/><path d="M57.84,55.07h3.35c0.46,0,0.84-0.38,0.84-0.84V27.39c0-0.46-0.38-0.84-0.84-0.84h-3.35c-0.46,0-0.84,0.38-0.84,0.84v26.84    C57,54.69,57.38,55.07,57.84,55.07z M58.68,28.23h1.68v25.16h-1.68V28.23z"/><path d="M51.33,64.24c0-0.46-0.38-0.84-0.84-0.84H31.84c-0.46,0-0.84,0.38-0.84,0.84v3.35c0,0.46,0.38,0.84,0.84,0.84h18.65    c0.46,0,0.84-0.38,0.84-0.84V64.24z M49.66,66.76H32.68v-1.68h16.98V66.76z"/><path d="M50.49,71.35H31.84c-0.46,0-0.84,0.38-0.84,0.84v3.35c0,0.46,0.38,0.84,0.84,0.84h18.65c0.46,0,0.84-0.38,0.84-0.84v-3.35    C51.33,71.73,50.96,71.35,50.49,71.35z M49.66,74.71H32.68v-1.68h16.98V74.71z"/><path d="M72.3,78.13H48.48c-0.31,0-0.6,0.17-0.74,0.45l-4.19,7.97c-0.14,0.26-0.13,0.57,0.02,0.82s0.42,0.41,0.72,0.41h22.99    c0.29,0,0.56-0.15,0.71-0.39l5.03-7.97c0.16-0.26,0.17-0.59,0.03-0.85C72.89,78.3,72.61,78.13,72.3,78.13z M66.81,86.1H45.67    l3.31-6.29h21.8L66.81,86.1z"/><path d="M40.09,45.07h7.97c0.46,0,0.84-0.38,0.84-0.84v-7.97c0-0.46-0.38-0.84-0.84-0.84h-7.97c-0.46,0-0.84,0.38-0.84,0.84v7.97    C39.25,44.7,39.63,45.07,40.09,45.07z M40.93,37.1h6.29v6.29h-6.29V37.1z"/><path d="M33.1,60.64v-0.61h1.13c0.46,0,0.84-0.38,0.84-0.84c0-0.46-0.38-0.84-0.84-0.84H33.1v-1.68h1.13    c0.46,0,0.84-0.38,0.84-0.84c0-0.46-0.38-0.84-0.84-0.84H33.1v-0.76c0-0.46-0.38-0.84-0.84-0.84h-5.38    c-0.46,0-0.84,0.38-0.84,0.84V55H24.9c-0.46,0-0.84,0.38-0.84,0.84c0,0.46,0.38,0.84,0.84,0.84h1.13v1.68H24.9    c-0.46,0-0.84,0.38-0.84,0.84c0,0.46,0.38,0.84,0.84,0.84h1.13v0.61c0,0.46,0.38,0.84,0.84,0.84h5.38    C32.72,61.48,33.1,61.1,33.1,60.64z M31.42,59.8h-3.71v-4.72h3.71V59.8z"/><path d="M34.15,37.12h2.8v2.5h-2.78c-0.46,0-0.84,0.38-0.84,0.84c0,0.46,0.38,0.84,0.84,0.84h2.78v2.1h-2.78    c-0.46,0-0.84,0.38-0.84,0.84c0,0.46,0.38,0.84,0.84,0.84h2.78v1.68c0,0.46,0.38,0.84,0.84,0.84h1.48v2.8    c0,0.46,0.38,0.84,0.84,0.84s0.84-0.38,0.84-0.84v-2.8h2.5v2.78c0,0.46,0.38,0.84,0.84,0.84s0.84-0.38,0.84-0.84v-2.78h2.1v2.78    c0,0.46,0.38,0.84,0.84,0.84c0.46,0,0.84-0.38,0.84-0.84v-2.78h1.47c0.46,0,0.84-0.38,0.84-0.84v-1.69H54    c0.46,0,0.84-0.38,0.84-0.84c0-0.46-0.38-0.84-0.84-0.84h-2.8v-2.5h2.78c0.46,0,0.84-0.38,0.84-0.84c0-0.46-0.38-0.84-0.84-0.84    H51.2v-2.1h2.78c0.46,0,0.84-0.38,0.84-0.84c0-0.46-0.38-0.84-0.84-0.84H51.2v-1.68c0-0.46-0.38-0.84-0.84-0.84h-1.49v-2.8    c0-0.46-0.38-0.84-0.84-0.84c-0.46,0-0.84,0.38-0.84,0.84v2.8h-2.5v-2.78c0-0.46-0.38-0.84-0.84-0.84s-0.84,0.38-0.84,0.84v2.78    h-2.1v-2.78c0-0.46-0.38-0.84-0.84-0.84s-0.84,0.38-0.84,0.84v2.78h-1.47c-0.46,0-0.84,0.38-0.84,0.84v1.7h-2.8    c-0.46,0-0.84,0.38-0.84,0.84C33.31,36.75,33.68,37.12,34.15,37.12z M38.62,34.59h10.9v11.32h-10.9V34.59z"/><path d="M23.24,85.05c-1.39,0-2.52,1.13-2.52,2.52c0,1.39,1.13,2.52,2.52,2.52s2.52-1.13,2.52-2.52    C25.76,86.18,24.63,85.05,23.24,85.05z M23.24,88.41c-0.46,0-0.84-0.38-0.84-0.84c0-0.46,0.38-0.84,0.84-0.84s0.84,0.38,0.84,0.84    C24.08,88.03,23.7,88.41,23.24,88.41z"/><path d="M51.22,57.34c0-2.46-2-4.46-4.46-4.46c-2.46,0-4.46,2-4.46,4.46c0,2.46,2,4.46,4.46,4.46    C49.22,61.8,51.22,59.8,51.22,57.34z M43.98,57.34c0-1.53,1.25-2.78,2.78-2.78s2.78,1.25,2.78,2.78c0,1.53-1.25,2.78-2.78,2.78    S43.98,58.87,43.98,57.34z"/><path d="M80.28,85.05c-1.39,0-2.52,1.13-2.52,2.52c0,1.39,1.13,2.52,2.52,2.52c1.39,0,2.52-1.13,2.52-2.52    C82.8,86.18,81.67,85.05,80.28,85.05z M80.28,88.41c-0.46,0-0.84-0.38-0.84-0.84c0-0.46,0.38-0.84,0.84-0.84    c0.46,0,0.84,0.38,0.84,0.84C81.12,88.03,80.74,88.41,80.28,88.41z"/><path d="M80.28,23.4c1.39,0,2.52-1.13,2.52-2.52s-1.13-2.52-2.52-2.52c-1.39,0-2.52,1.13-2.52,2.52S78.89,23.4,80.28,23.4z     M80.28,20.05c0.46,0,0.84,0.38,0.84,0.84c0,0.46-0.38,0.84-0.84,0.84c-0.46,0-0.84-0.38-0.84-0.84    C79.44,20.42,79.82,20.05,80.28,20.05z"/><circle cx="49.37" cy="84.21" r="1.26"/><circle cx="67.03" cy="81.7" r="1.26"/><path d="M78.29,75.76V62.1c0-0.11-0.02-0.22-0.06-0.32c-0.04-0.1-0.1-0.2-0.18-0.27l-4.65-4.65c-0.08-0.08-0.17-0.14-0.27-0.18    c-0.1-0.04-0.21-0.06-0.32-0.06H59.13c-0.46,0-0.84,0.38-0.84,0.84V71.1c0,0.01,0,0.01,0,0.02c0,0.1,0.02,0.2,0.06,0.3    c0.04,0.1,0.1,0.2,0.18,0.27l4.64,4.65c0.08,0.08,0.17,0.14,0.27,0.18c0.1,0.04,0.21,0.06,0.32,0.06h13.67    C77.91,76.6,78.29,76.22,78.29,75.76z M70.96,74.92l-5.87-5.87c-0.33-0.33-0.86-0.33-1.19,0c-0.33,0.33-0.33,0.86,0,1.19    l4.69,4.69h-4.46l-4.16-4.16V58.28h6.4l5.87,5.87c0.16,0.16,0.38,0.25,0.59,0.25s0.43-0.08,0.59-0.25c0.33-0.33,0.33-0.86,0-1.19    l-4.69-4.69h3.71l4.16,4.16v12.48H70.96z"/><path d="M27.51,26.59c0.16,0.16,0.38,0.25,0.59,0.25s0.43-0.08,0.59-0.25c0.33-0.33,0.33-0.86,0-1.19l-9.72-9.72    c-0.33-0.33-0.86-0.33-1.19,0c-0.33,0.33-0.33,0.86,0,1.19L27.51,26.59z"/><path d="M27.51,34.34c0.16,0.16,0.38,0.25,0.59,0.25s0.43-0.08,0.59-0.25c0.33-0.33,0.33-0.86,0-1.19l-9.72-9.72    c-0.33-0.33-0.86-0.33-1.19,0s-0.33,0.86,0,1.19L27.51,34.34z"/><path d="M24.33,38.92c0.16,0.16,0.38,0.25,0.59,0.25c0.21,0,0.43-0.08,0.59-0.25c0.33-0.33,0.33-0.86,0-1.19l-6.54-6.54    c-0.33-0.33-0.86-0.33-1.19,0s-0.33,0.86,0,1.19L24.33,38.92z"/><path d="M22.18,44.18c0.21,0,0.43-0.08,0.59-0.25c0.33-0.33,0.33-0.86,0-1.19l-3.8-3.8c-0.33-0.33-0.86-0.33-1.19,0    c-0.33,0.33-0.33,0.86,0,1.19l3.8,3.8C21.75,44.1,21.96,44.18,22.18,44.18z"/><path d="M39.63,81.07h-3.35h-3.35h-3.35c-0.46,0-0.84,0.38-0.84,0.84v3.35c0,0,0,0,0,0c0,0,0,0,0,0v3.35    c0,0.46,0.38,0.84,0.84,0.84h3.35h3.35h3.35c0.46,0,0.84-0.38,0.84-0.84v-3.35c0,0,0,0,0,0c0,0,0,0,0,0v-3.35    C40.47,81.44,40.1,81.07,39.63,81.07z M38.8,84.42h-1.68v-1.68h1.68V84.42z M35.44,84.42h-1.68v-1.68h1.68V84.42z M30.41,82.75    h1.68v1.68h-1.68V82.75z M30.41,86.1h1.68v1.68h-1.68V86.1z M33.76,86.1h1.68v1.68h-1.68V86.1z M38.8,87.78h-1.68V86.1h1.68V87.78    z"/></g></g></svg>