<svg xmlns="http://www.w3.org/2000/svg" xmlns:xlink="http://www.w3.org/1999/xlink" version="1.1" x="0px" y="0px" enable-background="new 0 0 100 100" xml:space="preserve" fill="orange" viewBox="1 44 98 26" style="--darkreader-inline-fill: #cc8400;" data-darkreader-inline-fill=""><path d="M4,46.5v0.06l0.02-0.06H4z"/>
    <path d="M96.29,44H3.65l-0.27,1l-0.36,1.37v0.13L3.01,58v1L3,63v4h94V46.44L96.29,44z M4,46.5h0.02L4.41,45h91.14L96,46.5H4.02  L4,46.56V46.5z M96,66H4V47.5h92V66z"/>
    <polygon points="63,67 63,70 3,70 3,67 4,67 4,69 6,69 6,67 7,67 7,69 9,69 9,67 10,67 10,69 12,69 12,67 13,67 13,69 15,69 15,67   16,67 16,69 18,69 18,67 19,67 19,69 21,69 21,67 22,67 22,69 24,69 24,67 25,67 25,69 27,69 27,67 28,67 28,69 30,69 30,67 31,67   31,69 33,69 33,67 34,67 34,69 35,69 35,67 36,67 36,69 38,69 38,67 39,67 39,69 41,69 41,67 42,67 42,69 44,69 44,67 45,67 45,69   47,69 47,67 48,67 48,69 50,69 50,67 51,67 51,69 53,69 53,67 54,67 54,69 56,69 56,67 57,67 57,69 59,69 59,67 "/>
    <polygon points="97,67 97,70 67,70 67,67 68,67 68,69 70,69 70,67 71,67 71,69 73,69 73,67 74,67 74,69 76,69 76,67 77,67 77,69   79,69 79,67 80,67 80,69 82,69 82,67 83,67 83,69 85,69 85,67 86,67 86,69 88,69 88,67 89,67 89,69 91,69 91,67 92,67 92,69 94,69   94,67 95,67 95,69 96,69 96,67 "/>
    <rect x="9" y="50" width="10" height="11"/>
    <rect x="26" y="50" width="10" height="11"/>
    <rect x="43" y="50" width="10" height="11"/>
    <rect x="64" y="50" width="10" height="11"/>
    <rect x="81" y="50" width="10" height="11"/>
    <polyline fill="none" points="3,63 3,60 3,59 3,58 3,57 3,47.5 3,46.5 "/>
    <line fill="none" x1="81" y1="50" x2="80" y2="50"/>
    <path d="M1,46.5V58h2.01l0.01-11.5H1z M3,57H2v-9.5h1V57z"/>
    <path d="M3,66v-1H1v5h2v-1H2v-3H3z"/>
    <path d="M1,59v5h2v-1H2v-3h1v3l0.01-4H1z"/>
    <path d="M97,46.5v1h1V57h-1v1h2V46.5H97z"/>
    <path d="M97,65v1h1v3h-1v1h2v-5H97z"/>
    <path d="M97,59v1h1v3h-1v1h2v-5H97z"/>
    <polygon points="4.02,46.5 4,46.56 4,46.5 "/>
</svg>