<svg xmlns="http://www.w3.org/2000/svg" xmlns:xlink="http://www.w3.org/1999/xlink" style="isolation:isolate;" x="0px" y="0px" viewBox="13.62 169.35 470.23 192.48">
    <path d=" M 454.22 202.908 L 477.44 202.908 L 477.44 208.713 L 454.22 208.713 L 454.22 202.908 L 454.22 202.908 L 454.22 202.908 L 454.22 202.908 L 454.22 202.908 L 454.22 202.908 L 454.22 202.908 L 454.22 202.908 L 454.22 202.908 L 454.22 202.908 L 454.22 202.908 L 454.22 202.908 L 454.22 202.908 Z  M 454.22 286.5 L 477.44 286.5 L 477.44 292.305 L 454.22 292.305 L 454.22 286.5 L 454.22 286.5 L 454.22 286.5 L 454.22 286.5 L 454.22 286.5 L 454.22 286.5 L 454.22 286.5 Z  M 454.22 230.772 L 477.44 230.772 L 477.44 236.577 L 454.22 236.577 L 454.22 230.772 L 454.22 230.772 L 454.22 230.772 L 454.22 230.772 L 454.22 230.772 L 454.22 230.772 L 454.22 230.772 L 454.22 230.772 L 454.22 230.772 L 454.22 230.772 L 454.22 230.772 Z  M 454.22 244.704 L 477.44 244.704 L 477.44 250.509 L 454.22 250.509 L 454.22 244.704 L 454.22 244.704 L 454.22 244.704 L 454.22 244.704 L 454.22 244.704 L 454.22 244.704 L 454.22 244.704 L 454.22 244.704 L 454.22 244.704 L 454.22 244.704 Z  M 454.22 258.636 L 477.44 258.636 L 477.44 264.441 L 454.22 264.441 L 454.22 258.636 L 454.22 258.636 L 454.22 258.636 L 454.22 258.636 L 454.22 258.636 L 454.22 258.636 L 454.22 258.636 L 454.22 258.636 L 454.22 258.636 Z  M 454.22 216.84 L 477.44 216.84 L 477.44 222.645 L 454.22 222.645 L 454.22 216.84 L 454.22 216.84 L 454.22 216.84 L 454.22 216.84 L 454.22 216.84 L 454.22 216.84 L 454.22 216.84 L 454.22 216.84 L 454.22 216.84 L 454.22 216.84 L 454.22 216.84 L 454.22 216.84 Z  M 454.22 272.568 L 477.44 272.568 L 477.44 278.373 L 454.22 278.373 L 454.22 272.568 L 454.22 272.568 L 454.22 272.568 L 454.22 272.568 L 454.22 272.568 L 454.22 272.568 L 454.22 272.568 L 454.22 272.568 Z  M 454.22 321.33 L 477.44 321.33 L 477.44 327.135 L 454.22 327.135 L 454.22 321.33 L 454.22 321.33 L 454.22 321.33 L 454.22 321.33 L 454.22 321.33 L 454.22 321.33 Z  M 454.22 335.262 L 477.44 335.262 L 477.44 341.068 L 454.22 341.068 L 454.22 335.262 L 454.22 335.262 L 454.22 335.262 L 454.22 335.262 L 454.22 335.262 Z  M 311.416 202.037 L 60.638 202.037 L 60.638 330.909 L 364.242 330.909 L 364.242 261.829 L 373.359 252.831 L 373.359 231.643 L 311.416 231.643 L 311.416 202.037 L 311.416 202.037 L 311.416 202.037 L 311.416 202.037 Z  M 344.698 176.612 L 372.187 176.612 L 372.187 194.427 L 344.698 194.427 L 344.698 176.612 L 344.698 176.612 L 344.698 176.612 Z  M 378.384 176.612 L 398.346 176.612 L 398.346 206.187 L 378.384 206.187 L 378.384 176.612 L 378.384 176.612 Z  M 483.826 299.271 L 483.826 195.942 L 415.907 195.942 L 415.907 169.383 L 13.617 169.383 L 13.617 247.606 C 23.549 247.606 31.613 255.67 31.613 265.602 C 31.613 275.534 23.549 283.598 13.617 283.598 L 13.617 283.598 L 13.617 361.821 L 362.275 361.821 L 364.822 351.952 L 406.618 351.952 L 409.165 361.821 L 421.487 361.821 L 424.034 351.952 L 483.826 351.952 L 483.826 312.042 L 457.703 312.042 C 453.858 312.042 450.737 309.181 450.737 305.657 L 450.737 305.657 C 450.737 302.133 453.858 299.271 457.703 299.271 L 483.826 299.271 L 483.826 299.271 L 483.826 299.271 L 483.826 299.271 L 483.826 299.271 L 483.826 299.271 L 483.826 299.271 L 483.826 299.271 L 483.826 299.271 L 483.826 299.271 L 483.826 299.271 L 483.826 299.271 L 483.826 299.271 Z  M 344.698 200.195 L 372.187 200.195 L 372.187 206.801 L 344.698 206.801 L 344.698 200.195 Z " fill-rule="evenodd" fill="orange" style="--darkreader-inline-fill: #cc8400;" data-darkreader-inline-fill=""/>
</svg>