<svg xmlns="http://www.w3.org/2000/svg" xmlns:svg="http://www.w3.org/2000/svg" version="1.1" x="0px" y="0px" viewBox="0.72 1.17 12.85 11.95">     <path style="color:#000000;" d="M 0.99230155,1.1906249 A 0.26458331,0.26458331 0 0 0 0.72771824,1.4552082 0.26458331,0.26458331 0 0 0 0.99230155,1.7197915 H 2.6831529 L 4.9698353,10.255187 A 0.26460977,0.26460977 0 0 0 5.2256345,10.45104 H 11.972509 A 0.26458331,0.26458331 0 0 0 12.237092,10.186457 0.26458331,0.26458331 0 0 0 11.972509,9.9218741 H 5.4287233 L 5.1806765,8.9958325 H 12.019017 A 0.26460977,0.26460977 0 0 0 12.274816,8.799979 l 1.27589,-4.7624996 A 0.26460977,0.26460977 0 0 0 13.295425,3.7041663 H 3.762674 L 3.141525,1.3864784 A 0.26460977,0.26460977 0 0 0 2.8857258,1.1906249 Z m 2.91196685,3.042708 h 9.0459576 l -1.134298,4.233333 H 5.0385661 Z m 1.718241,1.0583333 A 0.26458331,0.26458331 0 0 0 5.3579261,5.5562495 0.26458331,0.26458331 0 0 0 5.6225094,5.8208328 H 11.046467 A 0.26458331,0.26458331 0 0 0 11.311051,5.5562495 0.26458331,0.26458331 0 0 0 11.046467,5.2916662 Z M 6.1516761,6.879166 A 0.26458331,0.26458331 0 0 0 5.8870927,7.1437493 0.26458331,0.26458331 0 0 0 6.1516761,7.4083327 H 10.517301 A 0.26458331,0.26458331 0 0 0 10.781884,7.1437493 0.26458331,0.26458331 0 0 0 10.517301,6.879166 Z m -0.2428796,4.101041 c -0.5813663,0 -1.0583332,0.476966 -1.0583332,1.058333 0,0.581367 0.4769669,1.058334 1.0583332,1.058334 0.5813663,0 1.0583332,-0.476967 1.0583332,-1.058334 0,-0.581367 -0.4769669,-1.058333 -1.0583332,-1.058333 z m 5.2570425,0 c -0.581366,0 -1.058333,0.476966 -1.058333,1.058333 0,0.581367 0.476967,1.058334 1.058333,1.058334 0.581367,0 1.058334,-0.476967 1.058334,-1.058334 0,-0.581367 -0.476967,-1.058333 -1.058334,-1.058333 z m -5.2570425,0.529167 c 0.2953835,0 0.5291666,0.233782 0.5291666,0.529166 0,0.295385 -0.2337831,0.529167 -0.5291666,0.529167 -0.2953834,0 -0.5291666,-0.233782 -0.5291666,-0.529167 0,-0.295384 0.2337832,-0.529166 0.5291666,-0.529166 z m 5.2570425,0 c 0.295384,0 0.529167,0.233782 0.529167,0.529166 0,0.295385 -0.233783,0.529167 -0.529167,0.529167 -0.295383,0 -0.529166,-0.233782 -0.529166,-0.529167 0,-0.295384 0.233783,-0.529166 0.529166,-0.529166 z" fill="#000000" stroke="none"></path> </svg>